<svg xmlns="http://www.w3.org/2000/svg" width="52" height="52" fill="none"><path fill="url(#logo-apidog_svg__a)" d="m38.512 35.31-.78-.78-.145-.133a16.651 16.651 0 0 0-11.61-4.71c-4.338 0-8.504 1.69-11.61 4.71l-.1.1-.77.779-1.65 1.646a5.02 5.02 0 0 1-3.568 1.49 5.037 5.037 0 0 1-3.557-1.469 5.01 5.01 0 0 1-.001-7.095L8.28 26.3l-3.513-3.492a5.015 5.015 0 0 1-1.517-3.593c0-1.33.53-2.606 1.473-3.547A5.037 5.037 0 0 1 8.28 14.2a5.03 5.03 0 0 1 3.557 1.468l2.576 2.57a16.663 16.663 0 0 0 11.61 4.706c4.337 0 8.502-1.689 11.61-4.706a.523.523 0 0 1 .11-.112l1.462-1.468.97-.956a4.974 4.974 0 0 1 3.546-1.468c1.334 0 2.614.528 3.557 1.469a5.01 5.01 0 0 1 1.473 3.547 4.927 4.927 0 0 1-1.506 3.57l-3.524 3.515 3.524 3.514a4.984 4.984 0 0 1 1.506 3.582 5.01 5.01 0 0 1-1.473 3.547 5.025 5.025 0 0 1-7.103.001L38.5 35.309z"></path><path fill="url(#logo-apidog_svg__b)" d="M35.016 3.63c.61.251 1.165.621 1.631 1.088a5.01 5.01 0 0 1-.011 7.085l-3.557 3.548-.09.078a10.051 10.051 0 0 1-7.014 2.85c-2.622 0-5.14-1.023-7.015-2.85l-.09-.078-3.557-3.548a4.987 4.987 0 0 1-1.45-3.537 5.01 5.01 0 0 1 1.472-3.537 5.025 5.025 0 0 1 3.547-1.468c1.328 0 2.603.524 3.546 1.457l3.558 3.548 3.546-3.548A5.03 5.03 0 0 1 33.09 3.25a5.02 5.02 0 0 1 1.926.38"></path><path fill="url(#logo-apidog_svg__c)" d="M16.956 48.37a5.007 5.007 0 0 1-1.631-1.088 5.01 5.01 0 0 1 .011-7.085l3.557-3.548.09-.078a10.051 10.051 0 0 1 7.014-2.85c2.622 0 5.14 1.023 7.015 2.85l.089.078 3.558 3.548a4.986 4.986 0 0 1 1.45 3.537 5.009 5.009 0 0 1-1.473 3.537 5.025 5.025 0 0 1-3.546 1.468 5.048 5.048 0 0 1-3.547-1.457l-3.557-3.548-3.546 3.548a5.032 5.032 0 0 1-3.558 1.468 5.018 5.018 0 0 1-1.926-.38"></path><defs><linearGradient id="logo-apidog_svg__a" x1="3.249" x2="48.75" y1="14.626" y2="38.798" gradientUnits="userSpaceOnUse"><stop stop-color="#3BF"></stop><stop offset="1" stop-color="#33F"></stop></linearGradient><linearGradient id="logo-apidog_svg__b" x1="38.797" x2="12.491" y1="18.891" y2="2.539" gradientUnits="userSpaceOnUse"><stop stop-color="#99C2FF"></stop><stop offset="1" stop-color="#EBF3FF"></stop></linearGradient><linearGradient id="logo-apidog_svg__c" x1="25.972" x2="19.602" y1="48.75" y2="34.531" gradientUnits="userSpaceOnUse"><stop stop-color="#99C2FF"></stop><stop offset="1" stop-color="#EBF3FF"></stop></linearGradient></defs></svg>
