<svg width="24" height="24" viewBox="0 0 24 24" fill="none" xmlns="http://www.w3.org/2000/svg">
<path d="M19.4623 17.6933H16.8089L16.7889 13.2907L16.7688 8.88368L16.6021 8.46698C16.2675 7.6306 15.386 6.91945 14.475 6.75102C14.2407 6.70766 13.4083 6.6722 12.6255 6.6722H11.2021V3.98942V1.30664L12.6926 1.30722C13.5123 1.30758 14.4739 1.34108 14.8294 1.38169C18.5283 1.8044 21.3805 4.52148 22.0103 8.22248C22.1004 8.75164 22.1199 9.65327 22.1199 13.2799V17.6933H19.4623Z" fill="#00CAB7"/>
<path d="M0.682478 16.3094C0.586804 15.8001 0.571289 14.7132 0.571289 8.51121V1.30469H3.22891H5.88653V8.14679C5.88653 12.4659 5.9134 15.1328 5.95937 15.3794C6.1278 16.2827 6.69955 17.0307 7.52241 17.4241L8.00545 17.6551L12.407 17.6754L16.8043 17.6957V20.4152V23.139L12.2253 23.1088C7.27747 23.0762 7.30075 23.0778 6.06064 22.6595C3.29722 21.7272 1.24532 19.3045 0.682478 16.3094Z" fill="#772ED0"/>
</svg>
