<?xml version="1.0" encoding="UTF-8" standalone="no" ?>
<!DOCTYPE svg PUBLIC "-//W3C//DTD SVG 1.1//EN" "http://www.w3.org/Graphics/SVG/1.1/DTD/svg11.dtd">
<svg xmlns="http://www.w3.org/2000/svg" xmlns:xlink="http://www.w3.org/1999/xlink" version="1.1" width="1080" height="1080" viewBox="0 0 1080 1080" xml:space="preserve">
<desc>Created with Fabric.js 5.2.4</desc>
<defs>
</defs>
<rect x="0" y="0" width="100%" height="100%" fill="transparent"></rect>
<g transform="matrix(1 0 0 1 540 540)" id="ca2c0f7c-d9dd-466e-8d4e-295f7304962c"  >
<rect style="stroke: none; stroke-width: 1; stroke-dasharray: none; stroke-linecap: butt; stroke-dashoffset: 0; stroke-linejoin: miter; stroke-miterlimit: 4; fill: rgb(255,255,255); fill-rule: nonzero; opacity: 1; visibility: hidden;" vector-effect="non-scaling-stroke"  x="-540" y="-540" rx="0" ry="0" width="1080" height="1080" />
</g>
<g transform="matrix(Infinity NaN NaN Infinity 0 0)" id="242bf409-91e3-464c-9eb1-76921b80bd76"  >
</g>
<g transform="matrix(1.12 0 0 1.12 540 540)"  >
<g style="" vector-effect="non-scaling-stroke"   >
		<g transform="matrix(1 0 0 1 0 0)"  >
<rect style="stroke: none; stroke-width: 1; stroke-dasharray: none; stroke-linecap: butt; stroke-dashoffset: 0; stroke-linejoin: miter; stroke-miterlimit: 4; fill: rgb(255,255,255); fill-rule: nonzero; opacity: 1; visibility: hidden;" vector-effect="non-scaling-stroke"  x="-540" y="-540" rx="0" ry="0" width="1080" height="1080" />
</g>
		<g transform="matrix(4.58 0 0 4.58 -188.24 0)"  >
<polygon style="stroke: none; stroke-width: 1; stroke-dasharray: none; stroke-linecap: butt; stroke-dashoffset: 0; stroke-linejoin: miter; stroke-miterlimit: 4; fill: rgb(68,108,179); fill-rule: nonzero; opacity: 1;" vector-effect="non-scaling-stroke"  points="49.45,-87.05 0.75,-87.05 -49.45,0.05 0.75,87.05 10.65,69.95 -29.65,0.05 10.65,-69.85 39.45,-69.85 " />
</g>
		<g transform="matrix(4.58 0 0 4.58 -129.16 -223.96)"  >
<polygon style="stroke: none; stroke-width: 1; stroke-dasharray: none; stroke-linecap: butt; stroke-dashoffset: 0; stroke-linejoin: miter; stroke-miterlimit: 4; fill: rgb(210,77,87); fill-rule: nonzero; opacity: 1;" vector-effect="non-scaling-stroke"  points="2.25,20.95 12.15,3.85 -2.25,-20.95 -12.15,-3.75 " />
</g>
		<g transform="matrix(4.58 0 0 4.58 0 0.23)"  >
<polygon style="stroke: none; stroke-width: 1; stroke-dasharray: none; stroke-linecap: butt; stroke-dashoffset: 0; stroke-linejoin: miter; stroke-miterlimit: 4; fill: rgb(210,77,87); fill-rule: nonzero; opacity: 1;" vector-effect="non-scaling-stroke"  points="30.45,-69.9 40.35,-52.7 -30.45,69.9 -40.35,52.7 " />
</g>
		<g transform="matrix(4.58 0 0 4.58 188.47 0)"  >
<polygon style="stroke: none; stroke-width: 1; stroke-dasharray: none; stroke-linecap: butt; stroke-dashoffset: 0; stroke-linejoin: miter; stroke-miterlimit: 4; fill: rgb(68,108,179); fill-rule: nonzero; opacity: 1;" vector-effect="non-scaling-stroke"  points="-49.4,87.05 -39.6,69.85 -10.7,69.85 29.6,0.05 -10.7,-69.85 -0.8,-87.05 49.4,0.05 -0.8,87.05 " />
</g>
		<g transform="matrix(4.58 0 0 4.58 128.7 223.27)"  >
<polygon style="stroke: none; stroke-width: 1; stroke-dasharray: none; stroke-linecap: butt; stroke-dashoffset: 0; stroke-linejoin: miter; stroke-miterlimit: 4; fill: rgb(210,77,87); fill-rule: nonzero; opacity: 1;" vector-effect="non-scaling-stroke"  points="-2.35,-21.1 -12.25,-4 2.35,21.1 12.25,4.2 " />
</g>
</g>
</g>
</svg>