<?xml version="1.0" encoding="UTF-8" standalone="no" ?>
<!DOCTYPE svg PUBLIC "-//W3C//DTD SVG 1.1//EN" "http://www.w3.org/Graphics/SVG/1.1/DTD/svg11.dtd">
<svg xmlns="http://www.w3.org/2000/svg" version="1.1" width="1080" height="1080" viewBox="0 0 1080 1080"
     xml:space="preserve">
<desc>Created with Fabric.js 5.2.4</desc>
<defs>
</defs>
<g transform="matrix(1 0 0 1 540 540)" id="96d92ec0-47e0-421f-b788-12e0b931e21d"  >
<rect style="stroke: none; stroke-width: 1; stroke-dasharray: none; stroke-linecap: butt; stroke-dashoffset: 0; stroke-linejoin: miter; stroke-miterlimit: 4; fill: rgb(255,255,255); fill-rule: nonzero; opacity: 1; visibility: hidden;" vector-effect="non-scaling-stroke"  x="-540" y="-540" rx="0" ry="0" width="1080" height="1080" />
</g>
<g transform="matrix(Infinity NaN NaN Infinity 0 0)" id="1a5c37e4-353e-4f72-ae09-e85ce010ebc5"  >
</g>
<g transform="matrix(4.58 0 0 4.58 540 540)"  >
<g style=""   >
		<g transform="matrix(1 0 0 1 -41.1 0)"  >
<polygon style="stroke: none; stroke-width: 1; stroke-dasharray: none; stroke-linecap: butt; stroke-dashoffset: 0; stroke-linejoin: miter; stroke-miterlimit: 4; fill: rgb(68,108,179); fill-rule: nonzero; opacity: 1;" vector-effect="non-scaling-stroke"  points="49.45,-87.05 0.75,-87.05 -49.45,0.05 0.75,87.05 10.65,69.95 -29.65,0.05 10.65,-69.85 39.45,-69.85 " />
</g>
		<g transform="matrix(1 0 0 1 -28.2 -48.9)"  >
<polygon style="stroke: none; stroke-width: 1; stroke-dasharray: none; stroke-linecap: butt; stroke-dashoffset: 0; stroke-linejoin: miter; stroke-miterlimit: 4; fill: rgb(210,77,87); fill-rule: nonzero; opacity: 1;" vector-effect="non-scaling-stroke"  points="2.25,20.95 12.15,3.85 -2.25,-20.95 -12.15,-3.75 " />
</g>
		<g transform="matrix(1 0 0 1 0 0.05)"  >
<polygon style="stroke: none; stroke-width: 1; stroke-dasharray: none; stroke-linecap: butt; stroke-dashoffset: 0; stroke-linejoin: miter; stroke-miterlimit: 4; fill: rgb(210,77,87); fill-rule: nonzero; opacity: 1;" vector-effect="non-scaling-stroke"  points="30.45,-69.9 40.35,-52.7 -30.45,69.9 -40.35,52.7 " />
</g>
		<g transform="matrix(1 0 0 1 41.15 0)"  >
<polygon style="stroke: none; stroke-width: 1; stroke-dasharray: none; stroke-linecap: butt; stroke-dashoffset: 0; stroke-linejoin: miter; stroke-miterlimit: 4; fill: rgb(68,108,179); fill-rule: nonzero; opacity: 1;" vector-effect="non-scaling-stroke"  points="-49.4,87.05 -39.6,69.85 -10.7,69.85 29.6,0.05 -10.7,-69.85 -0.8,-87.05 49.4,0.05 -0.8,87.05 " />
</g>
		<g transform="matrix(1 0 0 1 28.1 48.75)"  >
<polygon style="stroke: none; stroke-width: 1; stroke-dasharray: none; stroke-linecap: butt; stroke-dashoffset: 0; stroke-linejoin: miter; stroke-miterlimit: 4; fill: rgb(210,77,87); fill-rule: nonzero; opacity: 1;" vector-effect="non-scaling-stroke"  points="-2.35,-21.1 -12.25,-4 2.35,21.1 12.25,4.2 " />
</g>
</g>
</g>
</svg>